<svg width="24" height="25" viewBox="0 0 24 25" fill="none" xmlns="http://www.w3.org/2000/svg">
<path d="M14.77 7.03285L10.5 12.3928L14.77 17.7529C14.8542 17.8539 14.9176 17.9706 14.9567 18.0962C14.9957 18.2218 15.0096 18.3538 14.9975 18.4848C14.9855 18.6158 14.9477 18.7431 14.8863 18.8595C14.825 18.9758 14.7413 19.0789 14.64 19.1629C14.4601 19.3119 14.2337 19.3933 14 19.3929C13.8531 19.3931 13.7079 19.361 13.5748 19.2987C13.4418 19.2365 13.324 19.1457 13.23 19.0329L8.23 13.0329C8.19636 12.9851 8.16628 12.935 8.14 12.8829C8.07 12.8329 8.07 12.8029 8.07 12.7529C8.02467 12.6382 8.00094 12.5161 8 12.3929C8.00094 12.2696 8.02467 12.1475 8.07 12.0329C8.14 11.9829 8.14 11.9529 8.14 11.9029C8.16628 11.8507 8.19636 11.8006 8.23 11.7529L13.23 5.75285C13.3997 5.54864 13.6437 5.42021 13.9081 5.39583C14.1725 5.37145 14.4358 5.45312 14.64 5.62285C14.8442 5.79259 14.9726 6.0365 14.997 6.30093C15.0214 6.56536 14.9397 6.82864 14.77 7.03285Z" fill="#292A2A"/>
</svg>
