<svg width="20" height="18" viewBox="0 0 20 18" fill="none" xmlns="http://www.w3.org/2000/svg">
<path fill-rule="evenodd" clip-rule="evenodd" d="M9.08257 3.02116C9.24257 2.83373 9.5328 2.56299 9.99978 2.56299C10.4668 2.56299 10.757 2.83373 10.917 3.02116C11.0705 3.19943 11.224 3.44685 11.3821 3.70092L11.4947 3.88253L11.5477 3.96583L11.6398 3.98499L11.8612 4.02998C12.1654 4.09162 12.4686 4.15243 12.7012 4.2349C12.9579 4.3257 13.3058 4.50148 13.4407 4.88884C13.5728 5.26787 13.4063 5.58943 13.2612 5.79686C13.1263 5.98846 12.9216 6.20171 12.7123 6.4208L12.5635 6.57742L12.4872 6.65822C12.4891 6.68821 12.4937 6.7232 12.4984 6.77068L12.5207 6.97894C12.5523 7.27134 12.583 7.55457 12.5719 7.78116C12.5607 8.01941 12.4975 8.37929 12.1365 8.62337C11.7644 8.87661 11.3551 8.82163 11.0947 8.75416C10.8547 8.69334 10.5709 8.57588 10.2854 8.45842L10.0789 8.37262L9.99978 8.34013L9.92071 8.37346L9.71327 8.45842C9.42862 8.57588 9.1449 8.69334 8.9049 8.75416C8.64443 8.8208 8.23513 8.87661 7.86304 8.62337C7.50304 8.37929 7.43885 8.01941 7.42769 7.782C7.41652 7.55457 7.44629 7.27134 7.47885 6.97811L7.50118 6.76985L7.51327 6.65822C7.48772 6.63114 7.46198 6.60421 7.43606 6.57742L7.28722 6.4208C7.07792 6.20171 6.87327 5.98762 6.73839 5.79602C6.59327 5.58943 6.42676 5.26787 6.55885 4.88801C6.6928 4.50231 7.04164 4.3257 7.29839 4.2349C7.53094 4.15243 7.8342 4.09162 8.13839 4.02998L8.35978 3.98499L8.4528 3.96583L8.5049 3.88253L8.61746 3.70092C8.77559 3.44685 8.92908 3.19943 9.08257 3.02116ZM9.99978 4.04913C9.94583 4.13327 9.88536 4.2299 9.81466 4.34403L9.7235 4.49065L9.70211 4.52397C9.62955 4.64393 9.50862 4.84219 9.30676 4.97964C9.10118 5.11959 8.8528 5.16791 8.70862 5.19623L8.66769 5.20373L8.49094 5.23955C8.32722 5.27287 8.1942 5.29953 8.08164 5.32535C8.15513 5.40616 8.25094 5.50779 8.37559 5.63858L8.49652 5.7652L8.52443 5.79352C8.6249 5.89765 8.78676 6.06426 8.86211 6.28085C8.93653 6.49411 8.91048 6.71404 8.89466 6.85232L8.89001 6.89147L8.87141 7.06058C8.85708 7.1882 8.84406 7.31594 8.83234 7.44378C8.93001 7.40546 9.03978 7.36048 9.17094 7.30633L9.33746 7.23802L9.37466 7.22136C9.50862 7.16554 9.74025 7.06725 9.99978 7.06725C10.2593 7.06725 10.4909 7.16554 10.6249 7.22219L10.6621 7.23802L10.8286 7.30633C10.9589 7.36048 11.0705 7.40629 11.1672 7.44378C11.1555 7.31594 11.1425 7.1882 11.1282 7.06058L11.1095 6.89147L11.1049 6.85232C11.0891 6.7132 11.063 6.49411 11.1375 6.28085C11.2119 6.06426 11.3747 5.89765 11.4751 5.79352L11.503 5.7652L11.624 5.63858C11.7486 5.50779 11.8444 5.40616 11.9179 5.32535C11.8054 5.30036 11.6723 5.27287 11.5086 5.23955L11.3319 5.20373L11.2909 5.1954C11.1468 5.16791 10.8984 5.11959 10.6928 4.97881C10.4909 4.84219 10.37 4.64393 10.2975 4.5248L10.2761 4.49065L10.1849 4.34403C10.1142 4.2299 10.0547 4.13327 9.99978 4.04913Z" fill="url(#paint0_linear_7_168)"/>
<path fill-rule="evenodd" clip-rule="evenodd" d="M5.81209 0.361562C7.1964 0.158345 8.59723 0.0588685 10 0.0641657C11.7005 0.0641657 13.106 0.198285 14.1879 0.361562L14.3135 0.380722C15.253 0.521506 16.0344 0.638964 16.6447 1.31206C17.0363 1.74441 17.1628 2.21175 17.1916 2.7324L17.6493 2.86902C18.08 2.99731 18.4586 3.1106 18.7572 3.23556C19.0809 3.37051 19.3777 3.54378 19.6047 3.82618C19.8316 4.10775 19.9219 4.41514 19.9628 4.73253C20 5.0266 20 5.3823 20 5.79049V5.91045C20 6.24534 20 6.54107 19.9721 6.78848C19.9423 7.05589 19.8763 7.31663 19.7116 7.56821C19.5451 7.82062 19.3228 7.99889 19.0763 8.15217C18.8484 8.29379 18.56 8.4379 18.2326 8.60034L15.7767 9.82242C15.2744 10.7063 14.586 11.4943 13.6372 12.0633C12.8233 12.5523 11.8493 12.8622 10.6977 12.9505V14.6424H12.0279C12.4043 14.6424 12.769 14.7592 13.06 14.9729C13.3511 15.1866 13.5504 15.484 13.6242 15.8145L13.8279 16.725H15.5814C15.7664 16.725 15.9439 16.7908 16.0747 16.908C16.2056 17.0252 16.2791 17.1841 16.2791 17.3498C16.2791 17.5155 16.2056 17.6744 16.0747 17.7916C15.9439 17.9087 15.7664 17.9746 15.5814 17.9746H4.4186C4.23357 17.9746 4.05611 17.9087 3.92527 17.7916C3.79444 17.6744 3.72093 17.5155 3.72093 17.3498C3.72093 17.1841 3.79444 17.0252 3.92527 16.908C4.05611 16.7908 4.23357 16.725 4.4186 16.725H6.17209L6.37581 15.8145C6.44958 15.484 6.64894 15.1866 6.93998 14.9729C7.23101 14.7592 7.59574 14.6424 7.97209 14.6424H9.30233V12.9505C8.1507 12.8622 7.17674 12.5523 6.36279 12.0641C5.41488 11.4943 4.72558 10.7063 4.22326 9.82242L1.76744 8.60034C1.47846 8.46296 1.19691 8.3134 0.923721 8.15217C0.666444 8.00247 0.449706 7.80326 0.289302 7.56904C0.138213 7.32958 0.0488974 7.06287 0.027907 6.78848C-2.59904e-08 6.54107 0 6.24534 0 5.91045V5.78966C0 5.38314 -3.46539e-08 5.0266 0.0372093 4.73253C0.0781395 4.41514 0.167442 4.10775 0.395349 3.82618C0.622326 3.54378 0.91907 3.37051 1.24186 3.23472C1.54233 3.10977 1.92 2.99731 2.3507 2.86902L2.80837 2.7324C2.83721 2.21091 2.96372 1.74441 3.35535 1.31206C3.96651 0.638131 4.74698 0.520673 5.68744 0.380722L5.81209 0.361562ZM7.59535 16.725H12.4047L12.2558 16.0594C12.2453 16.0122 12.2168 15.9697 12.1753 15.9392C12.1337 15.9087 12.0816 15.892 12.0279 15.892H7.97209C7.91835 15.892 7.86628 15.9087 7.82473 15.9392C7.78318 15.9697 7.75472 16.0122 7.74419 16.0594L7.59535 16.725ZM2.83907 4.04027L2.82605 4.04444C2.35163 4.18606 2.05023 4.27769 1.8307 4.36849C1.62884 4.4518 1.56372 4.51094 1.52744 4.55676C1.49023 4.60174 1.4493 4.67589 1.42419 4.87415C1.39628 5.08907 1.39535 5.37397 1.39535 5.82215V5.88296C1.39535 6.25367 1.39535 6.48609 1.41581 6.66436C1.43442 6.82763 1.46419 6.89344 1.49209 6.93509C1.51907 6.97675 1.56837 7.03173 1.71907 7.12586C1.88279 7.22749 2.10977 7.34079 2.47256 7.52156L3.46326 8.01472C3.06512 6.70684 2.90512 5.30733 2.84 4.04111L2.83907 4.04027ZM16.5367 8.01388C16.9349 6.70601 17.0949 5.3065 17.1609 4.04027L17.174 4.04444C17.6484 4.18606 17.9498 4.27769 18.1693 4.36849C18.3712 4.4518 18.4363 4.51094 18.4726 4.55676C18.5098 4.60174 18.5507 4.67589 18.5758 4.87415C18.6037 5.08907 18.6047 5.37397 18.6047 5.82215V5.88296C18.6047 6.25367 18.6047 6.48609 18.5842 6.66436C18.5656 6.82763 18.5358 6.89344 18.5079 6.93509C18.4809 6.97675 18.4316 7.03173 18.2809 7.12586C18.1163 7.22749 17.8902 7.34079 17.5274 7.52156L16.5367 8.01388ZM10 1.31373C8.3814 1.31373 7.05395 1.44118 6.04465 1.59363C4.92186 1.76357 4.68651 1.82688 4.43907 2.10012C4.19535 2.36836 4.17209 2.62327 4.2214 3.75204C4.30512 5.63305 4.58233 7.66401 5.44 9.20847C5.86419 9.96987 6.4186 10.593 7.14046 11.0262C7.85674 11.4568 8.78233 11.7268 10 11.7268C11.2186 11.7268 12.1433 11.4568 12.8605 11.0262C13.5823 10.593 14.1358 9.96987 14.5591 9.20763C15.4177 7.66401 15.6949 5.63388 15.7777 3.75121C15.8288 2.62327 15.8056 2.36836 15.5619 2.10012C15.3144 1.82688 15.0781 1.76357 13.9553 1.59363C12.6479 1.40207 11.3248 1.30844 10 1.31373Z" fill="url(#paint1_linear_7_168)"/>
<defs>
<linearGradient id="paint0_linear_7_168" x1="6.51074" y1="5.74368" x2="18.1103" y2="6.00259" gradientUnits="userSpaceOnUse">
<stop stop-color="#2DCDB0"/>
<stop offset="1" stop-color="#B9A272" stop-opacity="0.87"/>
</linearGradient>
<linearGradient id="paint1_linear_7_168" x1="3.47118e-08" y1="9.18209" x2="33.2457" y2="9.92401" gradientUnits="userSpaceOnUse">
<stop stop-color="#2DCDB0"/>
<stop offset="1" stop-color="#B9A272" stop-opacity="0.87"/>
</linearGradient>
</defs>
</svg>
