<svg width="7" height="421" viewBox="0 0 7 421" fill="none" xmlns="http://www.w3.org/2000/svg">
<path d="M3.521 0.333333C2.04824 0.333333 0.854329 1.52724 0.854329 3C0.854329 4.47276 2.04824 5.66667 3.521 5.66667C4.99376 5.66667 6.18766 4.47276 6.18766 3C6.18766 1.52724 4.99376 0.333333 3.521 0.333333ZM3.52098 415.333C2.04822 415.333 0.854311 416.527 0.854311 418C0.854311 419.473 2.04822 420.667 3.52098 420.667C4.99374 420.667 6.18764 419.473 6.18764 418C6.18764 416.527 4.99374 415.333 3.52098 415.333ZM3.021 3L3.02098 418L4.02098 418L4.021 3L3.021 3Z" fill="#B9A272" fill-opacity="0.69"/>
</svg>
