<svg width="6" height="523" viewBox="0 0 6 523" fill="none" xmlns="http://www.w3.org/2000/svg">
<path d="M3 0.725911C1.52724 0.725911 0.333333 1.91982 0.333333 3.39258C0.333333 4.86534 1.52724 6.05924 3 6.05924C4.47276 6.05924 5.66667 4.86534 5.66667 3.39258C5.66667 1.91982 4.47276 0.725911 3 0.725911ZM3.00002 516.726C1.52726 516.726 0.333356 517.92 0.333356 519.393C0.333356 520.865 1.52726 522.059 3.00002 522.059C4.47278 522.059 5.66669 520.865 5.66669 519.393C5.66669 517.92 4.47278 516.726 3.00002 516.726ZM2.5 3.39258L2.50002 519.393L3.50002 519.393L3.5 3.39258L2.5 3.39258Z" fill="url(#paint0_linear_51_537)"/>
<defs>
<linearGradient id="paint0_linear_51_537" x1="2.49091" y1="3.39258" x2="-79.9522" y2="11.3873" gradientUnits="userSpaceOnUse">
<stop stop-color="#2DCDB0"/>
<stop offset="1" stop-color="#B9A272" stop-opacity="0.87"/>
</linearGradient>
</defs>
</svg>
