<svg width="331" height="179" viewBox="0 0 331 179" fill="none" xmlns="http://www.w3.org/2000/svg">
<path d="M25.0546 153.01L38.4111 152.684L39.3918 167.366L38.9224 167.403L38.5997 167.42L35.335 163.611L33.5748 162.95L23.395 160.493L25.0546 153.01Z" fill="#373737" stroke="#373737" stroke-linejoin="bevel"/>
<path d="M23.3946 160.493L33.5743 162.95L35.3345 163.611L38.5993 167.42L16.5927 169.006L13.5501 169.437L16.8944 161.95L23.3946 160.493ZM8.29881 169.851L7.33909 168.479L7.28042 168.42L6.81103 167.42L6.79427 167.382L6.75236 167.156L6.71045 166.985L6.75236 166.796L6.81103 166.549L6.86551 166.344L6.93676 166.248L7.43129 165.587L7.69951 165.419L8.4916 165.31L9.69859 165.499L10.3608 165.687L10.4739 165.762L10.5661 165.838L10.6248 165.875L10.9014 166.307L10.9265 166.361L11.1906 166.985L11.3247 167.57V167.591L11.3414 167.683V167.914L11.3037 168.06L11.1696 168.592L11.1151 168.797L11.0481 168.931L10.6248 169.726L8.29881 169.851Z" fill="#373737" stroke="#373737" stroke-linejoin="bevel"/>
<path d="M263.98 120.243L265.12 122.47L267.986 134.729L259.282 139.391L248.457 141.467L250.041 135.846L252.916 130.786L256.931 126.672L258.712 124.998L261.339 122.077L261.603 120.942L261.394 120.528L260.43 119.771L263.98 120.243Z" fill="#373737" stroke="#373737" stroke-linejoin="bevel"/>
<path d="M247.773 115.983L248.306 115.924L252.006 116.397L253.385 116.791L253.934 117.28L254.521 117.958L254.613 118.339L255.879 118.867L257.71 119.453L259.487 119.771H260.43L261.394 120.528L261.603 120.942L261.339 122.077L258.712 124.998L256.931 126.672L252.916 130.786L250.041 135.846L246.319 134.126L240.917 127.865L239.069 122.487L247.773 115.983Z" fill="#373737" stroke="#373737" stroke-linejoin="bevel"/>
<path d="M230.393 124.132L239.069 122.487L240.917 127.865L246.319 134.126L250.04 135.846L248.456 141.467L246.021 141.71L235.783 142.882L233.042 140.333L231.793 138.805L229.304 133.448L229.211 132.691L230.393 124.132Z" fill="#373737" stroke="#373737" stroke-linejoin="bevel"/>
<path d="M234.647 103.096L243.352 105.792L242.807 110.04L244.089 111.454L246.319 112.831L247.509 114.602L247.773 115.983L239.069 122.487L230.393 124.131L227.715 123.73L229.379 112.982L234.647 103.096Z" fill="#373737" stroke="#373737" stroke-linejoin="bevel"/>
<path d="M249.379 99.6436L252.857 99.7984L259.244 102.946L260.941 103.096L261.901 104.189L263.98 120.244L260.43 119.771H259.487L257.71 119.452L255.879 118.867L254.613 118.339L254.521 117.958L253.934 117.28L253.385 116.791L252.006 116.397L248.306 115.924L247.773 115.983L247.509 114.602L246.319 112.831L244.09 111.454L242.807 110.04L243.352 105.792L249.379 99.6436Z" fill="#373737" stroke="#373737" stroke-linejoin="bevel"/>
<path d="M261.901 104.188L265.078 99.9277L268.665 102.004L273.334 104.925L274.956 106.344L276.674 109.34L277.34 111.584L277.282 113.94L265.12 122.47L263.98 120.243L261.901 104.188Z" fill="#373737" stroke="#373737" stroke-linejoin="bevel"/>
<path d="M277.282 113.94L279.981 114.656L281.263 116.263L287.629 112.831L290.919 114.639L290.747 118.728L289.859 120.281L281.301 127.337L272.328 132.41L267.986 134.728L265.12 122.47L277.282 113.94Z" fill="#373737" stroke="#373737" stroke-linejoin="bevel"/>
<path d="M294.452 97.8145L296.375 99.4928L297.587 99.4383L298.768 98.4757H299.02L300.415 99.3588L302.1 100.87L290.919 114.639L287.629 112.831L281.263 116.263L279.98 114.656L280.496 115.075L280.647 115.054L282.575 113.526L282.717 113.321L282.83 112.714L282.776 110.098L281.682 108.001L281.753 107.625L282.491 105.716L283.698 103.456L284.465 103.988L285.383 104L287.046 102.682L287.893 101.832L288.689 100.811L291.615 98.7771L294.452 97.8145Z" fill="#373737" stroke="#373737" stroke-linejoin="bevel"/>
<path d="M284.699 87.3637L288.916 87.9873L292.017 89.7033L292.407 90.3101L292.616 92.0805L292.524 93.5496L293.295 95.8096L293.521 96.0398L294.468 96.5881L295.282 96.948L294.452 97.8144L291.614 98.777L288.689 100.811L287.893 101.832L287.046 102.682L285.383 104L284.465 103.988L283.698 103.456L276.904 92.8883L283.606 86.6104L284.699 87.3637Z" fill="#373737" stroke="#373737" stroke-linejoin="bevel"/>
<path d="M276.904 92.8885L283.698 103.456L282.491 105.716L281.753 107.625L281.682 108.002L282.776 110.098L282.83 112.714L282.717 113.321L282.575 113.526L280.647 115.054L280.496 115.075L279.981 114.656L277.282 113.941L277.34 111.584L276.674 109.341L274.956 106.344L273.334 104.925L268.665 102.004L265.078 99.9282L261.901 104.189L260.941 103.096L259.508 99.0953L264.474 97.3417L273.652 92.8174L276.904 92.8885Z" fill="#373737" stroke="#373737" stroke-linejoin="bevel"/>
<path d="M256.972 90.0255L259.508 99.095L260.941 103.096L259.244 102.945L252.857 99.7981L249.378 99.6432L243.959 91.0592L244.961 91.8126L245.942 92.2144L246.793 92.3818L250.154 91.5698L252.647 90.2682L253.154 89.5316L255.162 89.4019L256.972 90.0255Z" fill="#373737" stroke="#373737" stroke-linejoin="bevel"/>
<path d="M234.966 89.5527L242.941 89.8206L243.959 91.0594L249.378 99.6434L243.352 105.792L234.647 103.096L233.985 100.51L232.82 97.7015L231.55 95.9269L230.737 94.4746L230.532 93.0977L230.662 92.4782L234.966 89.5527Z" fill="#373737" stroke="#373737" stroke-linejoin="bevel"/>
<path d="M233.436 74.0254L236.839 74.4021L238.658 76.1808L241.545 78.1228L244.919 78.3488L249.454 79.4788L242.941 89.8206L234.966 89.5528L233.436 74.0254Z" fill="#373737" stroke="#373737" stroke-linejoin="bevel"/>
<path d="M250.061 79.3867L258.426 82.5717L256.972 90.0257L255.162 89.4021L253.154 89.5318L252.647 90.2685L250.154 91.5701L246.792 92.382L245.942 92.2146L244.961 91.8128L243.959 91.0595L242.941 89.8206L249.454 79.4788L250.061 79.3867Z" fill="#373737" stroke="#373737" stroke-linejoin="bevel"/>
<path d="M258.426 82.5714L259.868 83.3582L261.167 82.6467L261.469 82.2324L262.014 81.1023L262.127 80.4076L262.077 80.0644L262.186 79.5538L262.412 79.1771L263.531 78.52L269.721 79.3487L283.606 86.6102L276.904 92.8881L273.652 92.8169L264.474 97.3412L259.508 99.0949L256.972 90.0254L258.426 82.5714Z" fill="#373737" stroke="#373737" stroke-linejoin="bevel"/>
<path d="M294.921 73.1046L298.437 74.5527L297.301 74.9335L296.585 75.3688L296.396 75.6492L297.213 83.4213L298.458 84.6476L299.175 86.3301L299.208 87.5145L298.379 90.9297L296.396 95.6632L295.68 96.6258L295.281 96.9481L294.468 96.5882L293.521 96.0399L293.295 95.8097L292.524 93.5497L292.616 92.0806L292.406 90.3103L292.017 89.7034L288.915 87.9874L284.699 87.3638L282.34 75.0591L283.719 75.0842L288.63 72.5605L289.972 72.0708L291.237 72.1043L294.791 72.9874L294.921 73.1046Z" fill="#373737" stroke="#373737" stroke-linejoin="bevel"/>
<path d="M294.884 64.3738L294.921 73.1043L294.791 72.9871L291.238 72.104L289.972 72.0705L288.631 72.5602L283.719 75.0839L282.34 75.0588L278.585 67.7429L278.468 61.9923L278.828 60.8205L279.017 60.4438L279.742 59.8244L279.905 59.8076L285.027 60.8791L289.423 63.1056L291.937 63.9929L294.884 64.3738Z" fill="#373737" stroke="#373737" stroke-linejoin="bevel"/>
<path d="M278.585 67.743L282.34 75.0588L284.699 87.3636L283.606 86.6102L269.721 79.3487L268.853 77.1054L268.078 74.1004L273.011 66.6548L273.128 66.5376H274.805L276.766 66.9352L278.585 67.743Z" fill="#373737" stroke="#373737" stroke-linejoin="bevel"/>
<path d="M257.978 70.3672L258.561 71.2712L260.887 72.3301L265.342 73.8368L268.854 77.1055L269.721 79.3488L263.531 78.5201L262.412 79.1772L262.186 79.5539L262.077 80.0645L262.127 80.4077L262.014 81.1024L261.469 82.2325L261.167 82.6468L259.868 83.3583L258.427 82.5715L250.062 79.3865L252.517 73.0834L257.978 70.3672Z" fill="#373737" stroke="#373737" stroke-linejoin="bevel"/>
<path d="M237.69 69.1955L246.072 68.8188L252.517 73.0837L250.061 79.3867L249.454 79.4788L244.919 78.3487L241.545 78.1227L238.658 76.1808L236.839 74.402L237.69 69.1955Z" fill="#373737" stroke="#373737" stroke-linejoin="bevel"/>
<path d="M231.663 59.8789L237.69 69.1953L236.839 74.4018L233.436 74.0252L222.385 73.2718L223.357 63.5368L231.663 59.8789Z" fill="#373737" stroke="#373737" stroke-linejoin="bevel"/>
<path d="M235.406 55.1665L237.652 57.3136L239.84 57.6526L240.313 58.0669L242.752 60.3144L245.548 63.6961L245.908 64.4243L246.072 68.8189L237.69 69.1956L231.663 59.8791L235.406 55.1665Z" fill="#373737" stroke="#373737" stroke-linejoin="bevel"/>
<path d="M256.461 60.2012L259.319 60.7453L257.978 70.3672L252.517 73.0835L246.072 68.8187L245.908 64.4241L256.461 60.2012Z" fill="#373737" stroke="#373737" stroke-linejoin="bevel"/>
<path d="M276.753 59.8625L278.467 61.9928L278.585 67.7433L276.766 66.9356L274.805 66.538H273.128L273.011 66.6552L268.078 74.1008L268.853 77.1058L265.341 73.8371L260.887 72.3304L258.561 71.2715L257.978 70.3675L259.319 60.7456L265.87 55.3926L276.753 59.8625Z" fill="#373737" stroke="#373737" stroke-linejoin="bevel"/>
<path d="M279.566 50.2614L276.753 59.8625L265.87 55.3926L266.096 51.1487L268.326 46.75L269.348 46.9593L272.575 48.7506L274.293 49.9936L277.541 50.6549L278.866 50.6339L279.566 50.2614Z" fill="#373737" stroke="#373737" stroke-linejoin="bevel"/>
<path d="M261.13 44.829L266.096 51.1487L265.87 55.3926L259.319 60.7456L256.461 60.2015L249.772 53.5804L251.969 51.7891L252.685 51.0106L254.496 48.2609L254.102 47.2815L254.521 44.9001L256.03 42.0918L261.13 44.829Z" fill="#373737" stroke="#373737" stroke-linejoin="bevel"/>
<path d="M240.108 48.8301L240.427 48.4618L240.615 48.4492L244.697 48.6543L245.15 48.9012L246.185 49.6922L247.589 52.3876L249.42 54.543L249.701 54.1077L249.772 53.5804L256.461 60.2015L245.908 64.4244L245.548 63.6962L242.752 60.3145L240.313 58.067L239.84 57.6526L237.652 57.3136L235.406 55.1666L240.108 48.8301Z" fill="#373737" stroke="#373737" stroke-linejoin="bevel"/>
<path d="M233.646 41.8449L240.108 48.8301L235.406 55.1666L225.163 46.6203L228.394 41.3887L233.646 41.8449Z" fill="#373737" stroke="#373737" stroke-linejoin="bevel"/>
<path d="M247.119 35.374L256.029 42.0914L254.521 44.8997L254.101 47.2811L254.495 48.2605L252.685 51.0102L251.968 51.7887L249.772 53.58L249.701 54.1073L249.42 54.5426L247.589 52.3872L246.185 49.6919L245.15 48.9008L244.697 48.6539L240.615 48.4488L240.426 48.4614L240.108 48.8297L233.646 41.8445L235.347 38.7181L238.557 40.2792L243.959 36.9602L247.119 35.374Z" fill="#373737" stroke="#373737" stroke-linejoin="bevel"/>
<path d="M232.099 33.562L235.347 38.7183L233.645 41.8447L228.394 41.3885L225.28 36.6047L232.099 33.562Z" fill="#373737" stroke="#373737" stroke-linejoin="bevel"/>
<path d="M234.534 23.6806L232.099 33.562L225.281 36.6047L223.277 35.2989L220.574 22.1362L228.336 24.3419L234.534 23.6806Z" fill="#373737" stroke="#373737" stroke-linejoin="bevel"/>
<path d="M246.109 29.4145L247.119 35.3743L243.959 36.9606L238.557 40.2795L235.347 38.7184L232.099 33.5621L234.534 23.6807L235.967 23.869L236.479 24.0573L236.743 24.2708L240.427 28.0794L243.695 29.6991L246.109 29.4145Z" fill="#373737" stroke="#373737" stroke-linejoin="bevel"/>
<path d="M271.066 21.1904L267.06 33.9053L265.17 40.6813L265.627 42.8869L265.455 43.2803L263.77 44.243L261.13 44.8289L256.029 42.0917L247.119 35.3743L246.109 29.4145L246.336 27.5102L246.658 26.9829L247.094 26.6815L250.38 25.246L250.895 25.133L251.252 25.1706H251.31L253.003 25.585L257.505 26.6648L257.618 26.7192L259.03 27.3805L259.131 27.4139L261.524 29.2052L271.066 21.1904Z" fill="#373737" stroke="#373737" stroke-linejoin="bevel"/>
<path d="M291.518 35.0185L292.407 44.4898L284.515 45.7914L282.55 38.9234L287.872 30.9253L291.518 35.0185Z" fill="#373737" stroke="#373737" stroke-linejoin="bevel"/>
<path d="M281.133 28.3053L287.872 30.9253L282.55 38.9234L278.409 38.1115L272.123 35.3199L270.383 34.7172L267.06 33.9053L271.067 21.1904V21.1694L271.817 20.8304L275.312 19.2484L276.452 18.7503L276.502 18.7378H276.716L277.148 18.9261L277.34 19.1354L277.395 19.2317L277.508 19.3991L277.579 19.5288L277.6 19.6041L277.617 19.6795L277.697 20.0017L277.73 20.3826V20.437L277.751 20.4621L277.709 21.115L278.107 22.8143L279.281 26.3425L279.377 26.5517L279.658 27.1502L279.997 27.5478L280.039 27.6064L280.945 28.2091L281.133 28.3053Z" fill="#373737" stroke="#373737" stroke-linejoin="bevel"/>
<path d="M267.06 33.9053L270.383 34.7172L272.123 35.3199L278.409 38.1115L282.55 38.9234L284.515 45.7915L279.566 50.2613L278.866 50.6338L277.542 50.6548L274.294 49.9935L272.575 48.7505L269.348 46.9592L268.326 46.7499L266.096 51.1486L261.13 44.8289L263.77 44.2429L265.455 43.2803L265.627 42.8869L265.17 40.6812L267.06 33.9053Z" fill="#373737" stroke="#373737" stroke-linejoin="bevel"/>
<path d="M284.515 45.7914L292.407 44.4897L291.35 49.1061V49.1229L291.518 49.5958L291.899 50.5417V50.5835L292.658 51.2573L293.467 51.4331L293.58 51.4666L300.227 57.8031L300.286 57.8785L300.302 57.9203V58.2217L299.208 60.1092L294.883 64.374L291.937 63.9932L289.423 63.1059L285.026 60.8793L279.905 59.8079L279.742 59.8246L279.017 60.444L278.828 60.8207L278.467 61.9926L276.753 59.8623L279.566 50.2612L284.515 45.7914Z" fill="#373737" stroke="#373737" stroke-linejoin="bevel"/>
<path d="M303.588 64.144L307.972 70.0662L298.437 74.5528L294.921 73.1047L294.883 64.3742L299.208 60.1094L303.588 64.144Z" fill="#373737" stroke="#373737" stroke-linejoin="bevel"/>
<path d="M298.437 74.5525L307.972 70.0659L307.955 70.1036L308.034 70.3673L309.614 72.7989L318.214 78.5746H318.227L321.295 79.6879L322.971 79.307L324.618 78.8173L312.204 93.7169L310.616 95.7635L304.233 99.3587L302.574 100.547L302.1 100.87L300.415 99.3587L299.02 98.4756H298.768L297.586 99.4382L296.375 99.4926L294.452 97.8143L295.281 96.948L295.68 96.6257L296.396 95.6631L298.379 90.9295L299.208 87.5144L299.175 86.3299L298.458 84.6474L297.213 83.4211L296.396 75.6491L296.585 75.3687L297.301 74.9334L298.437 74.5525Z" fill="#373737" stroke="#373737" stroke-linejoin="bevel"/>
<path d="M225.281 36.6046L228.394 41.3884L225.163 46.62L215.377 52.6761L209.204 41.9199L212.243 38.8103L223.277 35.2988L225.281 36.6046Z" fill="#373737" stroke="#373737" stroke-linejoin="bevel"/>
<path d="M215.377 52.6762L225.163 46.6201L235.406 55.1665L231.663 59.8791L223.357 63.537L217.573 56.5434L215.377 52.6762Z" fill="#373737" stroke="#373737" stroke-linejoin="bevel"/>
<path d="M222.385 73.272L233.436 74.0253L234.966 89.5527L230.662 92.4782L224.296 92.382L215.269 80.8348L218.554 76.1975L222.385 73.272Z" fill="#373737" stroke="#373737" stroke-linejoin="bevel"/>
<path d="M230.661 92.4781L230.532 93.0975L230.737 94.4745L231.55 95.9268L232.82 97.7013L233.985 100.51L234.647 103.096L229.379 112.982L219.12 104.548L220.461 95.7635L224.295 92.3818L230.661 92.4781Z" fill="#373737" stroke="#373737" stroke-linejoin="bevel"/>
<path d="M227.715 123.729L230.393 124.131L229.212 132.69L229.304 133.448L231.793 138.805L233.042 140.332L235.783 142.881L234.308 143.049L212.129 145.125L215.57 137.52L218.29 133.243L218.948 129.844L227.715 123.729Z" fill="#373737" stroke="#373737" stroke-linejoin="bevel"/>
<path d="M210.562 88.8159L220.461 95.7635L219.12 104.548L210.486 110.529L210.696 107.131L209.619 103.946L206.312 102.682L203.764 100.983L203.102 98.8522L203.144 94.4368L210.562 88.8159Z" fill="#373737" stroke="#373737" stroke-linejoin="bevel"/>
<path d="M206.937 79.3281L207.729 78.5748L208.353 78.3613L211.433 80.1191L211.601 81.3831L212.942 83.0447L213.588 83.2874L213.701 83.2163L215.268 80.8348L224.295 92.382L220.461 95.7637L210.562 88.8162L206.404 85.0034L206.937 79.3281Z" fill="#373737" stroke="#373737" stroke-linejoin="bevel"/>
<path d="M208.085 68.8813L218.554 76.1972L215.268 80.8345L213.701 83.2159L213.588 83.2871L212.942 83.0443L211.601 81.3828L211.434 80.1188L208.353 78.361L207.729 78.5745L206.937 79.3278L206.92 76.7832L208.085 68.8813Z" fill="#373737" stroke="#373737" stroke-linejoin="bevel"/>
<path d="M217.573 56.5435L223.357 63.5371L222.384 73.272L218.554 76.1975L208.085 68.8817L208.827 62.6121L217.573 56.5435Z" fill="#373737" stroke="#373737" stroke-linejoin="bevel"/>
<path d="M204.12 58.8408L208.827 62.6118L208.085 68.8813L206.92 76.7831L202.591 71.3674L198.777 63.7836L204.12 58.8408Z" fill="#373737" stroke="#373737" stroke-linejoin="bevel"/>
<path d="M209.204 41.9199L215.378 52.6761L217.574 56.5433L208.827 62.6119L204.121 58.841L202.474 50.4495L208.374 43.1336L209.204 41.9199Z" fill="#373737" stroke="#373737" stroke-linejoin="bevel"/>
<path d="M197.021 50.8431L202.473 50.4497L204.12 58.8412L198.777 63.784L192.03 63.897L191.824 52.6009L197.021 50.8431Z" fill="#373737" stroke="#373737" stroke-linejoin="bevel"/>
<path d="M192.03 63.8967L198.777 63.7837L202.591 71.3674L199.251 73.368L194.205 76.6702L193.681 76.9506L193.375 76.9171L193.241 76.7623L188.065 77.0259L186.971 73.1043L189.335 69.2748L192.03 63.8967Z" fill="#373737" stroke="#373737" stroke-linejoin="bevel"/>
<path d="M202.591 71.3677L206.92 76.7834L206.937 79.3281L206.404 85.0033L194.808 88.2302L193.241 76.7625L193.375 76.9174L193.681 76.9508L194.205 76.6704L199.251 73.3682L202.591 71.3677Z" fill="#373737" stroke="#373737" stroke-linejoin="bevel"/>
<path d="M206.404 85.0034L210.562 88.8162L203.144 94.437L195.034 95.5336L194.884 90.8335L194.808 88.2303L206.404 85.0034Z" fill="#373737" stroke="#373737" stroke-linejoin="bevel"/>
<path d="M195.035 95.5336L203.144 94.437L203.102 98.8525L203.764 100.983L206.312 102.682L209.619 103.946L210.696 107.131L210.487 110.529L203.613 118.017L197.134 114.962L191.183 108.826L194.414 102.791L195.035 95.5336Z" fill="#373737" stroke="#373737" stroke-linejoin="bevel"/>
<path d="M210.486 110.529L219.12 104.548L229.379 112.982L227.715 123.729L218.948 129.844L207.163 124.106L203.613 118.017L210.486 110.529Z" fill="#373737" stroke="#373737" stroke-linejoin="bevel"/>
<path d="M218.948 129.844L218.29 133.243L215.57 137.52L212.13 145.125L211.811 145.142L203.915 145.502L203.006 145.313L202.516 145.05L202.31 144.614L201.2 141.408L201.082 140.898L201.049 140.069L201.162 139.353L199.439 134.729L198.283 132.732L207.163 124.106L218.948 129.844Z" fill="#373737" stroke="#373737" stroke-linejoin="bevel"/>
<path d="M197.134 114.961L203.614 118.017L207.163 124.106L198.283 132.732L196.17 134.708L192.638 132.636L191.07 131.979L190.844 132.125L190.882 132.393L191.866 133.711L191.292 133.937L190.936 133.862L190.655 133.695L189.046 131.652L190.714 129.978L191.397 125.973L192.847 123.809L195.529 118.49L197.134 114.961Z" fill="#373737" stroke="#373737" stroke-linejoin="bevel"/>
<path d="M191.866 133.712L190.881 132.393L190.844 132.125L191.07 131.979L192.637 132.636L196.17 134.708L198.283 132.732L199.439 134.729L201.162 139.353L201.049 140.069L201.082 140.898L201.199 141.408L202.31 144.614L202.515 145.05L203.006 145.313L203.915 145.502L190.655 146.335L189.825 146.481L191.866 133.712Z" fill="#373737" stroke="#373737" stroke-linejoin="bevel"/>
<path d="M190.714 129.979L189.046 131.653L190.655 133.695L190.936 133.862L191.292 133.938L191.866 133.712L189.825 146.481L183.853 147.561L175.828 137.504L181.267 130.318L190.714 129.979Z" fill="#373737" stroke="#373737" stroke-linejoin="bevel"/>
<path d="M191.183 108.826L197.134 114.961L195.529 118.489L192.847 123.809L191.397 125.973L190.713 129.978L181.267 130.317L177.055 121.432L183.945 116.112L191.183 108.826Z" fill="#373737" stroke="#373737" stroke-linejoin="bevel"/>
<path d="M177.487 101.895L177.567 101.748L178.392 101.397L182.365 101.024L191.824 100.924L194.414 102.79L191.183 108.826L183.945 116.112L179.98 110.487L177.587 107.457L172.634 104.209L172.504 103.736L172.483 102.192L177.487 101.895Z" fill="#373737" stroke="#373737" stroke-linejoin="bevel"/>
<path d="M178.602 87.2339L180.207 89.4186L182.059 91.1346L185.312 91.9507L194.884 90.8332L195.035 95.5333L194.414 102.791L191.824 100.924L182.365 101.024L178.392 101.397L177.567 101.748L177.487 101.895L174.6 97.3413L178.602 87.2339Z" fill="#373737" stroke="#373737" stroke-linejoin="bevel"/>
<path d="M193.241 76.7622L194.808 88.2299L194.884 90.8331L185.312 91.9506L182.06 91.1345L180.207 89.4185L178.602 87.2338L188.065 77.0259L193.241 76.7622Z" fill="#373737" stroke="#373737" stroke-linejoin="bevel"/>
<path d="M175.149 64.8008L189.335 69.2748L186.971 73.1044L173.351 73.5731L175.111 66.4079L175.149 64.8008Z" fill="#373737" stroke="#373737" stroke-linejoin="bevel"/>
<path d="M179.754 52.768L191.824 52.6006L192.029 63.8967L189.335 69.2747L175.148 64.8007L172.483 57.5643L172.952 56.9491L173.334 56.6938L174.05 56.4092L175.639 55.9363L177.206 56.0493L178.321 55.5596L179.754 52.768Z" fill="#373737" stroke="#373737" stroke-linejoin="bevel"/>
<path d="M183.157 39.9028L186.992 38.8481L197.021 50.8431L191.824 52.601L179.754 52.7684L177.642 45.6325L183.157 39.9028Z" fill="#373737" stroke="#373737" stroke-linejoin="bevel"/>
<path d="M192.411 34.6629L198.211 30.7915L199.343 36.2282L206.279 42.3973L207.088 42.753L208.374 43.1339L202.473 50.4498L197.021 50.8432L186.992 38.8482L192.411 34.6629Z" fill="#373737" stroke="#373737" stroke-linejoin="bevel"/>
<path d="M204.745 25.5093L208.316 25.6432L212.243 38.8101L209.204 41.9198L208.374 43.1335L207.088 42.7526L206.279 42.3969L199.343 36.2278L198.211 30.7911L203.085 27.0788L204.745 25.5093Z" fill="#373737" stroke="#373737" stroke-linejoin="bevel"/>
<path d="M220.574 22.1361L223.277 35.2988L212.242 38.8103L208.315 25.6434L212.925 24.2873L220.176 19.6626L220.574 22.1361Z" fill="#373737" stroke="#373737" stroke-linejoin="bevel"/>
<path d="M215.587 12.1543L220.176 19.6627L212.925 24.2874L207.389 9.13672L215.587 12.1543Z" fill="#373737" stroke="#373737" stroke-linejoin="bevel"/>
<path d="M207.389 9.13672L212.925 24.2874L208.315 25.6435L204.745 25.5095L202.666 10.8569L207.389 9.13672Z" fill="#373737" stroke="#373737" stroke-linejoin="bevel"/>
<path d="M202.666 10.8568L204.745 25.5095L203.085 27.0789L197.134 23.4712L196.564 21.1149L192.394 14.4771L194.318 10.1411L202.666 10.8568Z" fill="#373737" stroke="#373737" stroke-linejoin="bevel"/>
<path d="M197.134 23.4712L203.085 27.0789L198.211 30.7912L192.411 34.6626L187.99 29.6445L197.134 23.4712Z" fill="#373737" stroke="#373737" stroke-linejoin="bevel"/>
<path d="M181.116 34.3404L187.989 29.6445L192.411 34.6627L186.992 38.848L183.157 39.9027L175.278 32.3189L181.116 34.3404Z" fill="#373737" stroke="#373737" stroke-linejoin="bevel"/>
<path d="M175.278 32.3188L183.157 39.9026L177.642 45.6322L172.483 44.4896L172.353 41.087L175.278 32.3188Z" fill="#373737" stroke="#373737" stroke-linejoin="bevel"/>
<path d="M177.642 45.6323L179.754 52.7682L178.321 55.5598L177.206 56.0495L175.639 55.9365L174.05 56.4094L173.334 56.694L172.952 56.9493L172.483 57.5646L164.776 53.2035L172.483 44.4897L177.642 45.6323Z" fill="#373737" stroke="#373737" stroke-linejoin="bevel"/>
<path d="M164.776 53.2036L172.483 57.5647L175.149 64.801L175.111 66.4082L170.006 69.4048H163.401L156.935 72.5187L155.669 73.4562L154.424 75.2182L153.934 74.8206L154.973 65.3326L158.905 58.8621L164.776 53.2036Z" fill="#373737" stroke="#373737" stroke-linejoin="bevel"/>
<path d="M175.111 66.4082L173.351 73.5734L169.914 79.3491L170.312 79.7048L170.253 79.8178L167.839 82.7601L166.494 83.7269L164.663 84.4468L163.946 84.4049L154.424 75.2182L155.669 73.4562L156.935 72.5187L163.401 69.4049H170.006L175.111 66.4082Z" fill="#373737" stroke="#373737" stroke-linejoin="bevel"/>
<path d="M186.971 73.1045L188.065 77.0261L178.602 87.234L174.6 97.3415L173.141 99.1118L172.978 99.229L170.824 98.4757L170.706 97.4545L170.782 95.7762L170.857 94.9433L171.746 93.9263L170.782 90.1344L170.388 89.8582L167.442 88.5733L166.838 88.4603L163.946 84.4048L164.663 84.4466L166.494 83.7267L167.84 82.7599L170.254 79.8177L170.312 79.7047L169.914 79.3489L173.351 73.5732L186.971 73.1045Z" fill="#373737" stroke="#373737" stroke-linejoin="bevel"/>
<path d="M166.838 88.4604L167.442 88.5734L170.388 89.8583L170.782 90.1346L171.746 93.9264L170.857 94.9434L170.782 95.7763L170.706 97.4546L170.824 98.4758L172.978 99.2292L173.141 99.112L174.6 97.3416L177.487 101.895L172.483 102.192L169.65 105.114L159.546 105.222L159.676 99.4928L162.53 95.5712L164.303 93.3447L166.838 88.4604Z" fill="#373737" stroke="#373737" stroke-linejoin="bevel"/>
<path d="M169.65 105.114L172.483 102.192L172.504 103.737L172.634 104.21L177.588 107.457L179.981 110.488L183.945 116.113L177.055 121.432L169.818 118.243L169.65 105.114Z" fill="#373737" stroke="#373737" stroke-linejoin="bevel"/>
<path d="M169.818 118.243L177.055 121.432L181.267 130.317L175.827 137.503L169.575 136.901L168.141 128.036L167.404 124.734L166.628 122.545L166.234 121.034L167.441 119.151L169.818 118.243Z" fill="#373737" stroke="#373737" stroke-linejoin="bevel"/>
<path d="M169.574 136.901L175.827 137.504L183.853 147.561L168.761 149.009L160.677 149.503L160.111 144.409L169.574 136.901Z" fill="#373737" stroke="#373737" stroke-linejoin="bevel"/>
<path d="M132.099 138.521L133.591 141.258L141.52 141.71L141.47 143.405L141.923 150.235L135.46 151.821H126.844L132.099 138.521Z" fill="#373737" stroke="#373737" stroke-linejoin="bevel"/>
<path d="M150.795 133.82L160.111 144.409L160.677 149.503L150.837 149.917L141.923 150.235L141.47 143.405L145.699 138.956L146.981 136.917L149.441 134.071L150.795 133.82Z" fill="#373737" stroke="#373737" stroke-linejoin="bevel"/>
<path d="M167.441 119.151L166.234 121.034L166.628 122.545L167.404 124.734L168.141 128.036L169.574 136.901L160.111 144.409L150.795 133.82L152.346 126.709L154.181 120.716L167.441 119.151Z" fill="#373737" stroke="#373737" stroke-linejoin="bevel"/>
<path d="M159.546 105.222L169.65 105.113L169.818 118.243L167.442 119.151L154.181 120.716L148.93 112.057L152.953 105.381L159.546 105.222Z" fill="#373737" stroke="#373737" stroke-linejoin="bevel"/>
<path d="M153.934 74.8203L154.425 75.2179L163.946 84.4046L166.838 88.4601L164.303 93.3444L162.53 95.5709L159.676 99.4925L159.546 105.222L152.954 105.381L152.275 102.719L149.571 99.4925L148.758 99.4214L148.021 99.8316L146.868 100.288L142.489 98.622L146.587 86.966L152.555 85.271L153.54 82.0106L151.893 75.5151L153.934 74.8203Z" fill="#373737" stroke="#373737" stroke-linejoin="bevel"/>
<path d="M131.173 75.0255L139.693 69.5596L139.563 71.083V71.1793L139.58 71.5559L139.597 71.8029L139.635 71.8991L139.936 72.9538L140.184 73.3305L140.28 73.4812L140.485 73.6109L142.392 74.8707L144.228 75.5906L144.53 75.6282L150.632 75.9296L151.893 75.5152L153.54 82.0108L152.555 85.2711L146.587 86.9662L130.926 75.059L131.173 75.0255Z" fill="#373737" stroke="#373737" stroke-linejoin="bevel"/>
<path d="M111.002 83.3249L117.578 78.9722L125.092 86.7568L124.673 87.1586L124.409 89.5316L127.494 96.7554L126.773 96.4792L118.558 93.1184L118.533 90.1762L116.723 87.665L114.133 84.9864L110.826 85.0408L111.002 83.3249Z" fill="#373737" stroke="#373737" stroke-linejoin="bevel"/>
<path d="M125.092 86.7569L125.415 86.7779L125.976 86.5895L127.15 85.6813L129.907 79.4034L129.589 76.1807L129.66 75.5906L129.832 75.3479L130.058 75.2181L130.926 75.0591L146.587 86.9662L142.488 98.6222L142.019 98.9654L138.482 100.907L134.253 99.3044L134.211 99.0951L133.704 98.572L132.552 98.0237L132.367 98.0446L131.399 98.572L130.494 99.6099L129.228 101.531L126.772 96.4793L127.493 96.7556L124.409 89.5318L124.673 87.1587L125.092 86.7569Z" fill="#373737" stroke="#373737" stroke-linejoin="bevel"/>
<path d="M129.229 101.531L130.494 99.6097L131.399 98.5717L132.368 98.0444L132.552 98.0234L133.704 98.5717L134.212 99.0949L134.253 99.3041L138.482 100.907L142.019 98.9651L142.489 98.6219L146.868 100.288L148.021 99.8315L148.758 99.4213L149.571 99.4925L152.274 102.719L152.953 105.381L148.93 112.057L135.8 114.204L129.321 110.776L129.229 101.531Z" fill="#373737" stroke="#373737" stroke-linejoin="bevel"/>
<path d="M135.8 114.204L148.93 112.057L154.181 120.716L152.346 126.71L139.58 122.077L135.8 114.204Z" fill="#373737" stroke="#373737" stroke-linejoin="bevel"/>
<path d="M139.58 122.077L152.346 126.71L150.795 133.821L149.441 134.072L146.981 136.918L145.699 138.956L141.47 143.405L141.52 141.71L133.591 141.258L132.099 138.521L128.792 132.465L130.268 123.052L136.709 122.863L139.58 122.077Z" fill="#373737" stroke="#373737" stroke-linejoin="bevel"/>
<path d="M129.321 110.776L135.8 114.204L139.58 122.077L136.709 122.863L130.268 123.052L128.793 132.464L117.045 129.807L118.085 121.888L121.241 117.13L123.96 115.924L129.321 110.776Z" fill="#373737" stroke="#373737" stroke-linejoin="bevel"/>
<path d="M117.045 129.807L128.793 132.464L132.099 138.52L126.844 151.821L114.133 153.345L112.322 130.69L117.045 129.807Z" fill="#373737" stroke="#373737" stroke-linejoin="bevel"/>
<path d="M103.458 130.937L112.322 130.69L114.133 153.345L111.811 153.613L102.352 154.538L103.458 130.937Z" fill="#373737" stroke="#373737" stroke-linejoin="bevel"/>
<path d="M108.525 111.655L118.085 121.888L117.046 129.807L112.322 130.69L103.459 130.937L99.8962 126.622L100.592 125.094L97.7589 121.604L97.2476 118.586L100.328 113.756L108.525 111.655Z" fill="#373737" stroke="#373737" stroke-linejoin="bevel"/>
<path d="M118.558 93.1187L126.773 96.4794L129.229 101.531L129.321 110.776L123.961 115.924L121.241 117.13L118.085 121.888L108.525 111.655L110.378 103.569L114.531 99.6812L116.878 94.8514L118.558 93.1187Z" fill="#373737" stroke="#373737" stroke-linejoin="bevel"/>
<path d="M97.5323 86.3088L99.0452 87.3635L105.218 91.4735L108.374 85.7815L111.002 83.3247L110.826 85.0407L114.133 84.9863L116.723 87.6648L118.533 90.176L118.558 93.1183L116.878 94.851L114.531 99.6808L110.378 103.569L94.1167 98.3834L97.5323 86.3088Z" fill="#373737" stroke="#373737" stroke-linejoin="bevel"/>
<path d="M94.1168 98.3838L110.378 103.569L108.525 111.655L100.328 113.756L96.0823 104.377L90.6006 100.644L94.1168 98.3838Z" fill="#373737" stroke="#373737" stroke-linejoin="bevel"/>
<path d="M96.0822 104.377L100.328 113.756L97.2473 118.586L97.7586 121.604L100.592 125.094L99.896 126.622L97.0042 128.241L92.126 130.129L85.1439 128.333L78.5474 117.929L86.0869 112.057L91.3213 109.324L96.0822 104.377Z" fill="#373737" stroke="#373737" stroke-linejoin="bevel"/>
<path d="M99.8963 126.622L103.459 130.937L102.352 154.537L89.2807 155.898L87.0134 156.157L87.2145 151.537L86.917 138.181L83.5894 136.524L85.1442 128.333L92.1263 130.129L97.0045 128.241L99.8963 126.622Z" fill="#373737" stroke="#373737" stroke-linejoin="bevel"/>
<path d="M83.5891 136.524L86.9167 138.181L87.2142 151.537L87.0131 156.157L80.1944 156.952L80.2112 155.291L73.1872 155.157L70.6684 155.307L68.6316 151.725L66.1045 145.367L77.6631 139.336L83.5891 136.524Z" fill="#373737" stroke="#373737" stroke-linejoin="bevel"/>
<path d="M63.3051 130.334L67.2907 128.225L69.6167 128.3L72.9569 133.845L77.6633 139.337L66.1047 145.368L62.0479 139.445L63.3051 130.334Z" fill="#373737" stroke="#373737" stroke-linejoin="bevel"/>
<path d="M78.5474 117.929L85.1439 128.333L83.5891 136.524L77.6631 139.337L72.9567 133.845L69.6165 128.3L67.2905 128.225L78.9288 116.338L78.5474 117.929Z" fill="#373737" stroke="#373737" stroke-linejoin="bevel"/>
<path d="M90.6005 100.644L96.0822 104.377L91.3213 109.324L86.0869 112.057L78.5474 117.929L78.9287 116.338L72.8687 111.354L80.5339 102.041L90.6005 100.644Z" fill="#373737" stroke="#373737" stroke-linejoin="bevel"/>
<path d="M91.0532 84.5723L97.5324 86.3092L94.1168 98.3837L90.6006 100.644L80.534 102.042L71.1421 88.4437L80.7226 87.6861L91.0532 84.5723Z" fill="#373737" stroke="#373737" stroke-linejoin="bevel"/>
<path d="M67.366 94.3823L71.142 88.4434L80.5339 102.041L72.8687 111.354L67.3073 110.433L63.9336 106.942L63.59 106.323L62.6847 103.87L62.6596 103.812L62.4375 102.59L62.4165 102.531L62.4752 102.154L62.7015 101.552L62.756 101.434L63.0996 100.853L63.7827 99.5678L63.8163 99.5469L65.7818 98.1197L66.2931 97.5673L66.6116 96.9855L66.817 96.4372L67.366 94.3823Z" fill="#373737" stroke="#373737" stroke-linejoin="bevel"/>
<path d="M72.8686 111.354L78.9287 116.339L67.2905 128.225L63.3049 130.334L55.1284 116.92L56.2013 115.493L56.9221 114.828L56.9599 114.811L57.1652 114.677L58.1878 114.058L58.28 114.041L58.5482 113.961L59.2816 113.756L60.1701 113.568L66.0668 112.321L66.4984 112.224L67.3073 111.304V110.433L72.8686 111.354Z" fill="#373737" stroke="#373737" stroke-linejoin="bevel"/>
<path d="M55.1287 116.92L63.3052 130.334L62.048 139.445L51.5036 138.068L47.8784 135.377L50.9923 135.708L51.3108 135.653L52.2957 135.218L52.8028 133.82L53.4272 130.824L52.2202 128.145L51.6922 127.639L51.1222 127.316L49.3285 125.165L48.9639 123.997L48.989 123.637V123.617L50.2002 118.301L50.4223 117.77L50.9713 117.058L51.3527 116.79L51.6544 116.56L52.3879 116.225L52.6519 116.112L55.1287 116.92Z" fill="#373737" stroke="#373737" stroke-linejoin="bevel"/>
<path d="M52.5386 152.834L68.6318 151.725L70.6686 155.308L72.2192 165.059L53.4648 166.361L52.5386 152.834Z" fill="#373737" stroke="#373737" stroke-linejoin="bevel"/>
<path d="M51.5034 138.068L62.0478 139.445L66.1046 145.367L68.6318 151.725L52.5386 152.834L51.7633 142.425L51.5034 138.068Z" fill="#373737" stroke="#373737" stroke-linejoin="bevel"/>
<path d="M51.7631 142.425L52.5385 152.834L53.4647 166.361L52.2954 166.436L39.3915 167.365L38.4108 152.683L37.7109 143.296L51.7631 142.425Z" fill="#373737" stroke="#373737" stroke-linejoin="bevel"/>
<path d="M31.6509 128.488L47.8782 135.377L51.5034 138.068L51.7632 142.425L37.711 143.296L37.5601 142.881L31.4204 128.564L31.6509 128.488Z" fill="#373737" stroke="#373737" stroke-linejoin="bevel"/>
<path d="M37.7113 143.296L38.4111 152.683L25.0546 153.01L22.582 151.708L22.561 151.687V150.444L22.582 150.423L23.7722 149.745L23.7974 149.728L25.4151 144.334L37.5604 142.881L37.7113 143.296Z" fill="#373737" stroke="#373737" stroke-linejoin="bevel"/>
<path d="M31.4203 128.563L37.56 142.881L25.4147 144.334L23.885 142.367L21.8691 137.842L31.4203 128.563Z" fill="#373737" stroke="#373737" stroke-linejoin="bevel"/>
</svg>
