<svg width="22" height="19" viewBox="0 0 22 19" fill="none" xmlns="http://www.w3.org/2000/svg">
<path d="M3.25 0.393066H18.75C19.5801 0.393012 20.3788 0.71062 20.9822 1.28074C21.5856 1.85086 21.948 2.63026 21.995 3.45907L22 3.64307V15.1431C22.0001 15.9732 21.6824 16.7719 21.1123 17.3753C20.5422 17.9787 19.7628 18.3411 18.934 18.3881L18.75 18.3931H3.25C2.41986 18.3931 1.62117 18.0755 1.01777 17.5054C0.414367 16.9353 0.0519987 16.1559 0.00500012 15.3271L6.97518e-09 15.1431V3.64307C-5.43467e-05 2.81293 0.317554 2.01424 0.887672 1.41084C1.45779 0.807433 2.23719 0.445065 3.066 0.398067L3.25 0.393066ZM20.5 6.29807L11.346 11.0581C11.2573 11.1041 11.1603 11.132 11.0607 11.1401C10.9611 11.1482 10.8609 11.1363 10.766 11.1051L10.654 11.0581L1.5 6.29807V15.1431C1.50002 15.5823 1.66517 16.0054 1.96268 16.3285C2.26019 16.6515 2.6683 16.8509 3.106 16.8871L3.25 16.8931H18.75C19.1893 16.893 19.6126 16.7277 19.9357 16.43C20.2588 16.1323 20.4581 15.7239 20.494 15.2861L20.5 15.1431V6.29807ZM18.75 1.89307H3.25C2.81081 1.89308 2.38768 2.05824 2.06461 2.35575C1.74154 2.65326 1.54214 3.06137 1.506 3.49907L1.5 3.64307V4.60707L11 9.54707L20.5 4.60707V3.64307C20.5 3.20372 20.3347 2.78046 20.037 2.45736C19.7392 2.13426 19.3309 1.93497 18.893 1.89907L18.75 1.89307Z" fill="url(#paint0_linear_34_433)"/>
<defs>
<linearGradient id="paint0_linear_34_433" x1="3.81829e-08" y1="9.5567" x2="36.5667" y2="10.4499" gradientUnits="userSpaceOnUse">
<stop stop-color="#2DCDB0"/>
<stop offset="1" stop-color="#B9A272" stop-opacity="0.87"/>
</linearGradient>
</defs>
</svg>
