<svg width="22" height="19" viewBox="0 0 22 19" fill="none" xmlns="http://www.w3.org/2000/svg">
<path d="M1.00762 5.4324H10.9943H11.0048M20.9933 5.4324H11.0048M11.0048 5.4324C11.0659 4.2549 11.6199 3.14421 12.5499 2.33081C13.4799 1.51741 14.7156 1.06375 16.0005 1.06396C18.7612 1.06396 21 3.14509 21 5.67878C21.0001 6.35407 20.84 7.02129 20.5308 7.63413C20.2217 8.24696 19.7709 8.79074 19.2097 9.2277L13.8226 13.4004C12.9384 14.0852 12.2277 14.9387 11.7402 15.9015C11.2527 16.8642 11.0001 17.913 11 18.9746C10.9999 17.913 10.7473 16.8642 10.2598 15.9015C9.77226 14.9387 9.0616 14.0852 8.17741 13.4004L2.79031 9.2277C1.65518 8.3479 1 7.04174 1 5.67878C1 3.14509 3.23788 1.06396 5.99952 1.06396C7.28426 1.06397 8.51968 1.51774 9.4495 2.33111C10.3793 3.14449 10.9322 4.25505 10.9933 5.4324M2.43796 8.92715H19.5601M6.91372 12.4219H15.0844" stroke="url(#paint0_linear_7_158)" stroke-width="1.5"/>
<defs>
<linearGradient id="paint0_linear_7_158" x1="1" y1="10.1821" x2="34.2457" y2="10.924" gradientUnits="userSpaceOnUse">
<stop stop-color="#2DCDB0"/>
<stop offset="1" stop-color="#B9A272" stop-opacity="0.87"/>
</linearGradient>
</defs>
</svg>
