<svg width="19" height="25" viewBox="0 0 19 25" fill="none" xmlns="http://www.w3.org/2000/svg">
<path d="M2.95576 1.03159L4.61576 0.531587C5.37142 0.303611 6.18421 0.358419 6.90242 0.68578C7.62063 1.01314 8.19516 1.59068 8.51876 2.31059L9.55176 4.60859C9.83011 5.22765 9.90765 5.91833 9.7735 6.5837C9.63935 7.24907 9.30024 7.85574 8.80376 8.31859L6.99876 10.0016C6.97646 10.0224 6.95816 10.0472 6.94476 10.0746C6.75576 10.4606 7.04276 11.4916 7.94176 13.0496C8.95576 14.8056 9.73876 15.4996 10.1018 15.3926L12.4708 14.6676C13.1195 14.4695 13.8141 14.4793 14.457 14.6958C15.0999 14.9122 15.6589 15.3244 16.0558 15.8746L17.5238 17.9076C17.9846 18.5459 18.1981 19.3299 18.1246 20.1137C18.051 20.8976 17.6954 21.6282 17.1238 22.1696L15.8608 23.3646C15.4216 23.7806 14.8882 24.0842 14.3063 24.2494C13.7243 24.4147 13.1111 24.4367 12.5188 24.3136C9.00176 23.5816 5.85076 20.7496 3.03876 15.8796C0.225764 11.0066 -0.651237 6.85659 0.478763 3.44359C0.667919 2.87219 0.991835 2.35472 1.42314 1.9349C1.85445 1.51508 2.37947 1.20525 2.95576 1.03159ZM3.38976 2.46759C3.04397 2.57174 2.72833 2.7576 2.46951 3.00945C2.2107 3.26131 2.0163 3.57176 1.90276 3.91459C0.928764 6.85559 1.71776 10.5916 4.33776 15.1296C6.95576 19.6646 9.79376 22.2146 12.8238 22.8446C13.1793 22.9185 13.5475 22.9053 13.8968 22.806C14.2461 22.7068 14.5662 22.5244 14.8298 22.2746L16.0918 21.0806C16.3997 20.7891 16.5913 20.3958 16.631 19.9737C16.6707 19.5516 16.5559 19.1294 16.3078 18.7856L14.8398 16.7516C14.6261 16.4554 14.3251 16.2335 13.9791 16.1169C13.633 16.0004 13.2591 15.995 12.9098 16.1016L10.5348 16.8286C9.22076 17.2196 7.98476 16.1246 6.64276 13.7986C5.50576 11.8306 5.11176 10.4086 5.59776 9.41559C5.69176 9.22359 5.81976 9.05059 5.97576 8.90459L7.78076 7.22159C8.0482 6.97237 8.23089 6.64566 8.30316 6.28731C8.37544 5.92897 8.33369 5.55699 8.18376 5.22359L7.15076 2.92659C6.97652 2.53885 6.6671 2.22779 6.28029 2.05149C5.89347 1.8752 5.45571 1.84573 5.04876 1.96859L3.38876 2.46859L3.38976 2.46759Z" fill="url(#paint0_linear_34_432)"/>
<defs>
<linearGradient id="paint0_linear_34_432" x1="3.14815e-08" y1="12.6107" x2="30.16" y2="13.0663" gradientUnits="userSpaceOnUse">
<stop stop-color="#2DCDB0"/>
<stop offset="1" stop-color="#B9A272" stop-opacity="0.87"/>
</linearGradient>
</defs>
</svg>
