<svg width="19" height="25" viewBox="0 0 19 25" fill="none" xmlns="http://www.w3.org/2000/svg">
<path d="M2.95576 1.0311L4.61576 0.531099C5.37142 0.303123 6.18421 0.357931 6.90242 0.685292C7.62063 1.01265 8.19516 1.59019 8.51876 2.3101L9.55176 4.6081C9.83011 5.22716 9.90765 5.91784 9.7735 6.58321C9.63935 7.24858 9.30024 7.85526 8.80376 8.3181L6.99876 10.0011C6.97646 10.0219 6.95816 10.0467 6.94476 10.0741C6.75576 10.4601 7.04276 11.4911 7.94176 13.0491C8.95576 14.8051 9.73876 15.4991 10.1018 15.3921L12.4708 14.6671C13.1195 14.469 13.8141 14.4788 14.457 14.6953C15.0999 14.9117 15.6589 15.3239 16.0558 15.8741L17.5238 17.9071C17.9846 18.5454 18.1981 19.3294 18.1246 20.1133C18.051 20.8971 17.6954 21.6277 17.1238 22.1691L15.8608 23.3641C15.4216 23.7801 14.8882 24.0837 14.3063 24.249C13.7243 24.4142 13.1111 24.4362 12.5188 24.3131C9.00176 23.5811 5.85076 20.7491 3.03876 15.8791C0.225764 11.0061 -0.651237 6.8561 0.478763 3.4431C0.667919 2.8717 0.991835 2.35423 1.42314 1.93442C1.85445 1.5146 2.37947 1.20476 2.95576 1.0311ZM3.38926 2.4676C3.38939 2.46747 3.38926 2.46725 3.38909 2.4673C3.04356 2.57149 2.72816 2.75727 2.46951 3.00896C2.2107 3.26082 2.0163 3.57128 1.90276 3.9141C0.928764 6.8551 1.71776 10.5911 4.33776 15.1291C6.95576 19.6641 9.79376 22.2141 12.8238 22.8441C13.1793 22.918 13.5475 22.9048 13.8968 22.8055C14.2461 22.7063 14.5662 22.5239 14.8298 22.2741L16.0918 21.0801C16.3997 20.7886 16.5913 20.3953 16.631 19.9732C16.6707 19.5511 16.5559 19.1289 16.3078 18.7851L14.8398 16.7511C14.6261 16.4549 14.3251 16.233 13.9791 16.1164C13.633 15.9999 13.2591 15.9945 12.9098 16.1011L10.5348 16.8281C9.22076 17.2191 7.98476 16.1241 6.64276 13.7981C5.50576 11.8301 5.11176 10.4081 5.59776 9.4151C5.69176 9.2231 5.81976 9.0501 5.97576 8.9041L7.78076 7.2211C8.0482 6.97188 8.23089 6.64517 8.30316 6.28682C8.37544 5.92848 8.33369 5.5565 8.18376 5.2231L7.15076 2.9261C6.97652 2.53836 6.6671 2.2273 6.28029 2.051C5.89347 1.87471 5.45571 1.84524 5.04876 1.9681L3.38944 2.46789C3.38926 2.46795 3.38913 2.46773 3.38926 2.4676Z" fill="url(#paint0_linear_51_628)"/>
<defs>
<linearGradient id="paint0_linear_51_628" x1="3.14815e-08" y1="12.6103" x2="30.16" y2="13.0658" gradientUnits="userSpaceOnUse">
<stop stop-color="#2DCDB0"/>
<stop offset="1" stop-color="#B9A272" stop-opacity="0.87"/>
</linearGradient>
</defs>
</svg>
