<svg width="9" height="11" viewBox="0 0 9 11" fill="none" xmlns="http://www.w3.org/2000/svg">
<path d="M6.54785 5.76367C6.31517 5.99253 6.35677 6.45378 6.63846 6.61861C6.78723 6.70566 6.92955 6.80154 7.06543 6.90625C7.42025 7.17969 7.72298 7.4987 7.97363 7.86328C8.22428 8.22786 8.41634 8.62337 8.5498 9.0498C8.65333 9.38057 8.7167 9.72406 8.73992 10.0803C8.75115 10.2525 8.61009 10.3926 8.4375 10.3926C8.26491 10.3926 8.12632 10.2525 8.11392 10.0803C8.08395 9.66448 7.99325 9.27377 7.8418 8.9082C7.65299 8.45247 7.38932 8.05534 7.05078 7.7168C6.71224 7.37825 6.31673 7.11621 5.86426 6.93066C5.41178 6.74512 4.91536 6.64909 4.375 6.64258C4.02669 6.64258 3.69141 6.68652 3.36914 6.77441C3.04688 6.8623 2.7474 6.986 2.4707 7.14551C2.19401 7.30501 1.94173 7.4987 1.71387 7.72656C1.486 7.95443 1.29232 8.20671 1.13281 8.4834C0.973307 8.76009 0.847982 9.0612 0.756836 9.38672C0.693554 9.61273 0.653025 9.84344 0.635248 10.0789C0.622228 10.2513 0.483948 10.3926 0.311026 10.3926C0.139251 10.3926 -0.00116803 10.2532 0.010223 10.0818C0.0339327 9.72502 0.0988844 9.38103 0.205078 9.0498C0.341797 8.62337 0.535482 8.22949 0.786133 7.86816C1.03678 7.50684 1.33952 7.19108 1.69434 6.9209C1.83105 6.8168 1.97429 6.72067 2.12405 6.63251C2.40784 6.46546 2.44367 6.00244 2.20703 5.77344C2.00521 5.57812 1.83431 5.36165 1.69434 5.12402C1.55436 4.88639 1.44531 4.63086 1.36719 4.35742C1.28906 4.08398 1.25 3.80404 1.25 3.51758C1.25 3.08464 1.33138 2.67936 1.49414 2.30176C1.6569 1.92415 1.87988 1.59212 2.16309 1.30566C2.44629 1.01921 2.77669 0.796224 3.1543 0.636719C3.5319 0.477214 3.9388 0.395833 4.375 0.392578C4.80794 0.392578 5.21322 0.473958 5.59082 0.636719C5.96842 0.799479 6.30046 1.02246 6.58691 1.30566C6.87337 1.58887 7.09635 1.91927 7.25586 2.29688C7.41536 2.67448 7.49674 3.08138 7.5 3.51758C7.5 3.80404 7.46256 4.08236 7.3877 4.35254C7.31283 4.62272 7.20378 4.87663 7.06055 5.11426C6.91732 5.35189 6.74642 5.56836 6.54785 5.76367ZM1.875 3.51758C1.875 3.86263 1.9401 4.18652 2.07031 4.48926C2.20052 4.79199 2.37956 5.05566 2.60742 5.28027C2.83529 5.50488 3.10059 5.68392 3.40332 5.81738C3.70605 5.95085 4.02995 6.01758 4.375 6.01758C4.72005 6.01758 5.04395 5.95247 5.34668 5.82227C5.64941 5.69206 5.91309 5.51302 6.1377 5.28516C6.3623 5.05729 6.54134 4.79199 6.6748 4.48926C6.80827 4.18652 6.875 3.86263 6.875 3.51758C6.875 3.17253 6.8099 2.84863 6.67969 2.5459C6.54948 2.24316 6.37044 1.97949 6.14258 1.75488C5.91471 1.53027 5.64941 1.35124 5.34668 1.21777C5.04395 1.08431 4.72005 1.01758 4.375 1.01758C4.02995 1.01758 3.70605 1.08268 3.40332 1.21289C3.10059 1.3431 2.83691 1.52214 2.6123 1.75C2.3877 1.97786 2.20866 2.24316 2.0752 2.5459C1.94173 2.84863 1.875 3.17253 1.875 3.51758Z" fill="#F8F8F8"/>
</svg>
