<svg width="18" height="25" viewBox="0 0 18 25" fill="none" xmlns="http://www.w3.org/2000/svg">
<path d="M9 5.62886C8.21347 5.62886 7.44461 5.87196 6.79064 6.32742C6.13667 6.78287 5.62696 7.43024 5.32597 8.18764C5.02498 8.94504 4.94622 9.77846 5.09967 10.5825C5.25311 11.3866 5.63186 12.1251 6.18802 12.7048C6.74417 13.2845 7.45276 13.6793 8.22418 13.8392C8.99559 13.9992 9.79518 13.9171 10.5218 13.6033C11.2485 13.2896 11.8696 12.7583 12.3065 12.0767C12.7435 11.3951 12.9767 10.5937 12.9767 9.77386C12.9767 8.67454 12.5578 7.62024 11.812 6.8429C11.0662 6.06556 10.0547 5.62886 9 5.62886ZM9 12.6099C8.46185 12.6099 7.93579 12.4436 7.48833 12.132C7.04088 11.8203 6.69213 11.3774 6.48619 10.8592C6.28025 10.3409 6.22636 9.77071 6.33135 9.22057C6.43634 8.67043 6.69548 8.1651 7.07601 7.76847C7.45654 7.37184 7.94136 7.10173 8.46917 6.9923C8.99698 6.88287 9.54407 6.93903 10.0413 7.15369C10.5384 7.36834 10.9634 7.73185 11.2624 8.19823C11.5613 8.66462 11.7209 9.21294 11.7209 9.77386C11.7209 10.526 11.4343 11.2474 10.924 11.7793C10.4137 12.3111 9.72164 12.6099 9 12.6099ZM9 0.393066C6.6139 0.395953 4.32633 1.38521 2.6391 3.14383C0.951871 4.90244 0.0027697 7.2868 0 9.77386C0 13.1455 1.5007 16.7266 4.33988 20.1298C5.62135 21.6734 7.06359 23.0636 8.64 24.2748C8.74552 24.3518 8.8712 24.3931 9 24.3931C9.12879 24.3931 9.25448 24.3518 9.36 24.2748C10.9364 23.0636 12.3786 21.6734 13.6601 20.1298C16.4993 16.7266 18 13.1488 18 9.77386C17.9972 7.2868 17.0481 4.90244 15.3609 3.14383C13.6737 1.38521 11.3861 0.395953 9 0.393066ZM9 22.919C7.43023 21.6558 1.25581 16.2771 1.25581 9.77386C1.25581 7.63307 2.07172 5.57997 3.52403 4.0662C4.97635 2.55244 6.94611 1.70201 9 1.70201C11.0539 1.70201 13.0236 2.55244 14.476 4.0662C15.9283 5.57997 16.7442 7.63307 16.7442 9.77386C16.7442 16.2771 10.5698 21.6558 9 22.919Z" fill="url(#paint0_linear_34_431)"/>
<defs>
<linearGradient id="paint0_linear_34_431" x1="3.12406e-08" y1="12.6112" x2="29.9293" y2="13.0599" gradientUnits="userSpaceOnUse">
<stop stop-color="#2DCDB0"/>
<stop offset="1" stop-color="#B9A272" stop-opacity="0.87"/>
</linearGradient>
</defs>
</svg>
