<svg width="18" height="16" viewBox="0 0 18 16" fill="none" xmlns="http://www.w3.org/2000/svg">
<path d="M16.8491 1.1549C17.0377 1.15647 17.2223 1.20962 17.3829 1.30857C17.5435 1.40753 17.6739 1.54853 17.7601 1.71631C17.8464 1.88409 17.885 2.07226 17.872 2.26043C17.8589 2.44861 17.7946 2.62963 17.6861 2.7839L16.6441 4.2649C16.5801 9.3509 14.8791 12.8039 11.5881 14.5289C10.0198 15.3083 8.28706 15.6989 6.53608 15.6679C4.37094 15.7177 2.23141 15.1918 0.336078 14.1439C0.208578 14.0582 0.110038 13.9359 0.0534481 13.7931C-0.00314206 13.6503 -0.0151255 13.4937 0.0190776 13.3439C0.0510983 13.1919 0.12845 13.0532 0.240925 12.9461C0.3534 12.839 0.495711 12.7685 0.649078 12.7439C1.92232 12.5661 3.17613 12.2694 4.39408 11.8579C-1.06392 9.3329 0.126078 3.6569 0.646078 1.9139C0.696772 1.74086 0.79209 1.58419 0.922467 1.45963C1.05284 1.33506 1.21369 1.24698 1.38887 1.20423C1.56404 1.16147 1.74738 1.16554 1.92048 1.21604C2.09359 1.26653 2.25036 1.36167 2.37508 1.4919C3.97271 3.13813 6.09101 4.18049 8.37008 4.4419C8.32963 3.82944 8.42431 3.21557 8.6474 2.64376C8.8705 2.07194 9.21655 1.55615 9.66108 1.1329C10.4312 0.402067 11.4534 -0.00369976 12.5151 2.54241e-05C13.5768 0.00375061 14.5961 0.416681 15.3611 1.1529L16.8491 1.1549ZM1.45708 13.6269C3.31908 14.4989 7.68308 15.4459 11.1241 13.6429C14.0791 12.0939 15.6001 8.9109 15.6451 4.1819C15.6471 4.02553 15.6966 3.87347 15.7871 3.7459L16.8681 2.2079L16.8271 2.1549C16.3091 2.1479 15.7981 2.1409 15.2771 2.1549C15.0739 2.15025 14.8794 2.07167 14.7301 1.9339C14.1544 1.35039 13.3728 1.01597 12.5533 1.00251C11.7337 0.989045 10.9416 1.29761 10.3471 1.8619C9.96523 2.22507 9.67981 2.67759 9.51658 3.17864C9.35334 3.67969 9.31743 4.2135 9.41208 4.7319C9.42949 4.82847 9.42467 4.92774 9.39799 5.02218C9.3713 5.11661 9.32345 5.20372 9.25808 5.2769C9.19544 5.35072 9.11563 5.40802 9.02565 5.44377C8.93568 5.47951 8.8383 5.49261 8.74208 5.4819C6.05529 5.2944 3.53248 4.12096 1.65808 2.1869C0.988078 4.2649 0.138077 9.2809 5.52708 11.2519C5.64049 11.2926 5.73991 11.3649 5.81361 11.4602C5.88731 11.5555 5.93224 11.6699 5.94308 11.7899C5.95527 11.9081 5.93353 12.0273 5.8804 12.1336C5.82726 12.2398 5.74494 12.3287 5.64308 12.3899C4.32621 13.0321 2.91147 13.4501 1.45708 13.6269Z" fill="#B9A272" fill-opacity="0.69"/>
</svg>
